<svg width="368" height="36" viewBox="0 0 368 36" fill="none" xmlns="http://www.w3.org/2000/svg">
<path d="M43.95 28V13.12H47.34L47.64 15.64C48.1 14.76 48.76 14.06 49.62 13.54C50.5 13.02 51.53 12.76 52.71 12.76C54.55 12.76 55.98 13.34 57 14.5C58.02 15.66 58.53 17.36 58.53 19.6V28H54.69V19.96C54.69 18.68 54.43 17.7 53.91 17.02C53.39 16.34 52.58 16 51.48 16C50.4 16 49.51 16.38 48.81 17.14C48.13 17.9 47.79 18.96 47.79 20.32V28H43.95ZM70.782 28.36C68.922 28.36 67.482 27.78 66.462 26.62C65.462 25.46 64.962 23.76 64.962 21.52V13.12H68.772V21.16C68.772 22.44 69.032 23.42 69.552 24.1C70.072 24.78 70.892 25.12 72.012 25.12C73.072 25.12 73.942 24.74 74.622 23.98C75.322 23.22 75.672 22.16 75.672 20.8V13.12H79.512V28H76.122L75.822 25.48C75.362 26.36 74.692 27.06 73.812 27.58C72.952 28.1 71.942 28.36 70.782 28.36ZM85.0439 28L90.4439 20.56L85.0439 13.12H89.1539L92.9339 18.4L96.6839 13.12H100.824L95.3939 20.56L100.824 28H96.6839L92.9339 22.72L89.1539 28H85.0439ZM112.9 28C111.34 28 110.09 27.62 109.15 26.86C108.21 26.1 107.74 24.75 107.74 22.81V16.33H105.19V13.12H107.74L108.19 9.13H111.58V13.12H115.6V16.33H111.58V22.84C111.58 23.56 111.73 24.06 112.03 24.34C112.35 24.6 112.89 24.73 113.65 24.73H115.51V28H112.9ZM120.637 31.33L128.137 4.69H131.887L124.357 31.33H120.637Z" fill="white"/>
<path d="M146.344 28.36C145.224 28.36 144.244 28.15 143.404 27.73C142.564 27.31 141.884 26.72 141.364 25.96L140.944 28H137.524V6.4H141.364V15.25C141.844 14.59 142.474 14.01 143.254 13.51C144.054 13.01 145.084 12.76 146.344 12.76C147.744 12.76 148.994 13.1 150.094 13.78C151.194 14.46 152.064 15.39 152.704 16.57C153.344 17.75 153.664 19.09 153.664 20.59C153.664 22.09 153.344 23.43 152.704 24.61C152.064 25.77 151.194 26.69 150.094 27.37C148.994 28.03 147.744 28.36 146.344 28.36ZM145.534 25C146.754 25 147.764 24.59 148.564 23.77C149.364 22.95 149.764 21.89 149.764 20.59C149.764 19.29 149.364 18.22 148.564 17.38C147.764 16.54 146.754 16.12 145.534 16.12C144.294 16.12 143.274 16.54 142.474 17.38C141.694 18.2 141.304 19.26 141.304 20.56C141.304 21.86 141.694 22.93 142.474 23.77C143.274 24.59 144.294 25 145.534 25ZM162.165 10.81C161.465 10.81 160.885 10.6 160.425 10.18C159.985 9.76 159.765 9.23 159.765 8.59C159.765 7.95 159.985 7.43 160.425 7.03C160.885 6.61 161.465 6.4 162.165 6.4C162.865 6.4 163.435 6.61 163.875 7.03C164.335 7.43 164.565 7.95 164.565 8.59C164.565 9.23 164.335 9.76 163.875 10.18C163.435 10.6 162.865 10.81 162.165 10.81ZM160.245 28V13.12H164.085V28H160.245ZM177.393 23.56C176.673 23.56 176.003 23.48 175.383 23.32L174.273 24.43C174.613 24.61 175.073 24.76 175.653 24.88C176.233 25 177.173 25.12 178.473 25.24C180.453 25.42 181.893 25.89 182.793 26.65C183.693 27.41 184.143 28.46 184.143 29.8C184.143 30.68 183.903 31.51 183.423 32.29C182.943 33.09 182.203 33.73 181.203 34.21C180.203 34.71 178.923 34.96 177.363 34.96C175.243 34.96 173.533 34.56 172.233 33.76C170.933 32.98 170.283 31.8 170.283 30.22C170.283 28.88 170.933 27.72 172.233 26.74C171.833 26.56 171.483 26.37 171.183 26.17C170.903 25.97 170.653 25.76 170.433 25.54V24.85L173.043 22.09C171.883 21.07 171.303 19.76 171.303 18.16C171.303 17.16 171.543 16.25 172.023 15.43C172.523 14.61 173.223 13.96 174.123 13.48C175.023 13 176.113 12.76 177.393 12.76C178.233 12.76 179.013 12.88 179.733 13.12H185.373V15.46L182.823 15.64C183.223 16.4 183.423 17.24 183.423 18.16C183.423 19.16 183.183 20.07 182.703 20.89C182.223 21.71 181.523 22.36 180.603 22.84C179.703 23.32 178.633 23.56 177.393 23.56ZM177.393 20.62C178.173 20.62 178.813 20.41 179.313 19.99C179.833 19.57 180.093 18.97 180.093 18.19C180.093 17.41 179.833 16.81 179.313 16.39C178.813 15.97 178.173 15.76 177.393 15.76C176.573 15.76 175.913 15.97 175.413 16.39C174.913 16.81 174.663 17.41 174.663 18.19C174.663 18.97 174.913 19.57 175.413 19.99C175.913 20.41 176.573 20.62 177.393 20.62ZM173.793 29.83C173.793 30.57 174.133 31.12 174.813 31.48C175.513 31.86 176.363 32.05 177.363 32.05C178.323 32.05 179.103 31.85 179.703 31.45C180.303 31.07 180.603 30.55 180.603 29.89C180.603 29.35 180.403 28.9 180.003 28.54C179.623 28.18 178.853 27.96 177.693 27.88C176.873 27.82 176.113 27.73 175.413 27.61C174.833 27.93 174.413 28.28 174.153 28.66C173.913 29.04 173.793 29.43 173.793 29.83ZM197.877 28.36C196.357 28.36 195.017 28.03 193.857 27.37C192.697 26.71 191.777 25.79 191.097 24.61C190.437 23.43 190.107 22.08 190.107 20.56C190.107 19.04 190.437 17.69 191.097 16.51C191.777 15.33 192.697 14.41 193.857 13.75C195.017 13.09 196.357 12.76 197.877 12.76C199.777 12.76 201.377 13.26 202.677 14.26C203.977 15.24 204.807 16.6 205.167 18.34H201.117C200.917 17.62 200.517 17.06 199.917 16.66C199.337 16.24 198.647 16.03 197.847 16.03C196.787 16.03 195.887 16.43 195.147 17.23C194.407 18.03 194.037 19.14 194.037 20.56C194.037 21.98 194.407 23.09 195.147 23.89C195.887 24.69 196.787 25.09 197.847 25.09C198.647 25.09 199.337 24.89 199.917 24.49C200.517 24.09 200.917 23.52 201.117 22.78H205.167C204.807 24.46 203.977 25.81 202.677 26.83C201.377 27.85 199.777 28.36 197.877 28.36ZM218.715 28.36C217.275 28.36 215.975 28.03 214.815 27.37C213.675 26.71 212.765 25.8 212.085 24.64C211.425 23.46 211.095 22.1 211.095 20.56C211.095 19.02 211.435 17.67 212.115 16.51C212.795 15.33 213.705 14.41 214.845 13.75C216.005 13.09 217.305 12.76 218.745 12.76C220.165 12.76 221.445 13.09 222.585 13.75C223.745 14.41 224.655 15.33 225.315 16.51C225.995 17.67 226.335 19.02 226.335 20.56C226.335 22.1 225.995 23.46 225.315 24.64C224.655 25.8 223.745 26.71 222.585 27.37C221.425 28.03 220.135 28.36 218.715 28.36ZM218.715 25.03C219.715 25.03 220.585 24.66 221.325 23.92C222.065 23.16 222.435 22.04 222.435 20.56C222.435 19.08 222.065 17.97 221.325 17.23C220.585 16.47 219.725 16.09 218.745 16.09C217.725 16.09 216.845 16.47 216.105 17.23C215.385 17.97 215.025 19.08 215.025 20.56C215.025 22.04 215.385 23.16 216.105 23.92C216.845 24.66 217.715 25.03 218.715 25.03ZM232.768 28V13.12H236.158L236.488 15.13C236.968 14.41 237.598 13.84 238.378 13.42C239.178 12.98 240.098 12.76 241.138 12.76C243.438 12.76 245.068 13.65 246.028 15.43C246.568 14.61 247.288 13.96 248.188 13.48C249.108 13 250.108 12.76 251.188 12.76C253.128 12.76 254.618 13.34 255.658 14.5C256.698 15.66 257.218 17.36 257.218 19.6V28H253.378V19.96C253.378 18.68 253.128 17.7 252.628 17.02C252.148 16.34 251.398 16 250.378 16C249.338 16 248.498 16.38 247.858 17.14C247.238 17.9 246.928 18.96 246.928 20.32V28H243.088V19.96C243.088 18.68 242.838 17.7 242.338 17.02C241.838 16.34 241.068 16 240.028 16C239.008 16 238.178 16.38 237.538 17.14C236.918 17.9 236.608 18.96 236.608 20.32V28H232.768ZM263.864 28V13.12H267.254L267.584 15.13C268.064 14.41 268.694 13.84 269.474 13.42C270.274 12.98 271.194 12.76 272.234 12.76C274.534 12.76 276.164 13.65 277.124 15.43C277.664 14.61 278.384 13.96 279.284 13.48C280.204 13 281.204 12.76 282.284 12.76C284.224 12.76 285.714 13.34 286.754 14.5C287.794 15.66 288.314 17.36 288.314 19.6V28H284.474V19.96C284.474 18.68 284.224 17.7 283.724 17.02C283.244 16.34 282.494 16 281.474 16C280.434 16 279.594 16.38 278.954 17.14C278.334 17.9 278.024 18.96 278.024 20.32V28H274.184V19.96C274.184 18.68 273.934 17.7 273.434 17.02C272.934 16.34 272.164 16 271.124 16C270.104 16 269.274 16.38 268.634 17.14C268.014 17.9 267.704 18.96 267.704 20.32V28H263.864ZM302.19 28.36C300.69 28.36 299.36 28.04 298.2 27.4C297.04 26.76 296.13 25.86 295.47 24.7C294.81 23.54 294.48 22.2 294.48 20.68C294.48 19.14 294.8 17.77 295.44 16.57C296.1 15.37 297 14.44 298.14 13.78C299.3 13.1 300.66 12.76 302.22 12.76C303.68 12.76 304.97 13.08 306.09 13.72C307.21 14.36 308.08 15.24 308.7 16.36C309.34 17.46 309.66 18.69 309.66 20.05C309.66 20.27 309.65 20.5 309.63 20.74C309.63 20.98 309.62 21.23 309.6 21.49H298.29C298.37 22.65 298.77 23.56 299.49 24.22C300.23 24.88 301.12 25.21 302.16 25.21C302.94 25.21 303.59 25.04 304.11 24.7C304.65 24.34 305.05 23.88 305.31 23.32H309.21C308.93 24.26 308.46 25.12 307.8 25.9C307.16 26.66 306.36 27.26 305.4 27.7C304.46 28.14 303.39 28.36 302.19 28.36ZM302.22 15.88C301.28 15.88 300.45 16.15 299.73 16.69C299.01 17.21 298.55 18.01 298.35 19.09H305.76C305.7 18.11 305.34 17.33 304.68 16.75C304.02 16.17 303.2 15.88 302.22 15.88ZM315.889 28V13.12H319.309L319.669 15.91C320.209 14.95 320.939 14.19 321.859 13.63C322.799 13.05 323.899 12.76 325.159 12.76V16.81H324.079C323.239 16.81 322.489 16.94 321.829 17.2C321.169 17.46 320.649 17.91 320.269 18.55C319.909 19.19 319.729 20.08 319.729 21.22V28H315.889ZM337.81 28.36C336.29 28.36 334.95 28.03 333.79 27.37C332.63 26.71 331.71 25.79 331.03 24.61C330.37 23.43 330.04 22.08 330.04 20.56C330.04 19.04 330.37 17.69 331.03 16.51C331.71 15.33 332.63 14.41 333.79 13.75C334.95 13.09 336.29 12.76 337.81 12.76C339.71 12.76 341.31 13.26 342.61 14.26C343.91 15.24 344.74 16.6 345.1 18.34H341.05C340.85 17.62 340.45 17.06 339.85 16.66C339.27 16.24 338.58 16.03 337.78 16.03C336.72 16.03 335.82 16.43 335.08 17.23C334.34 18.03 333.97 19.14 333.97 20.56C333.97 21.98 334.34 23.09 335.08 23.89C335.82 24.69 336.72 25.09 337.78 25.09C338.58 25.09 339.27 24.89 339.85 24.49C340.45 24.09 340.85 23.52 341.05 22.78H345.1C344.74 24.46 343.91 25.81 342.61 26.83C341.31 27.85 339.71 28.36 337.81 28.36ZM358.739 28.36C357.239 28.36 355.909 28.04 354.749 27.4C353.589 26.76 352.679 25.86 352.019 24.7C351.359 23.54 351.029 22.2 351.029 20.68C351.029 19.14 351.349 17.77 351.989 16.57C352.649 15.37 353.549 14.44 354.689 13.78C355.849 13.1 357.209 12.76 358.769 12.76C360.229 12.76 361.519 13.08 362.639 13.72C363.759 14.36 364.629 15.24 365.249 16.36C365.889 17.46 366.209 18.69 366.209 20.05C366.209 20.27 366.199 20.5 366.179 20.74C366.179 20.98 366.169 21.23 366.149 21.49H354.839C354.919 22.65 355.319 23.56 356.039 24.22C356.779 24.88 357.669 25.21 358.709 25.21C359.489 25.21 360.139 25.04 360.659 24.7C361.199 24.34 361.599 23.88 361.859 23.32H365.759C365.479 24.26 365.009 25.12 364.349 25.9C363.709 26.66 362.909 27.26 361.949 27.7C361.009 28.14 359.939 28.36 358.739 28.36ZM358.769 15.88C357.829 15.88 356.999 16.15 356.279 16.69C355.559 17.21 355.099 18.01 354.899 19.09H362.309C362.249 18.11 361.889 17.33 361.229 16.75C360.569 16.17 359.749 15.88 358.769 15.88Z" fill="#0D52FF"/>
<path d="M15.806 20.0789H19.5903C20.6664 20.0789 21.3479 19.4867 21.3479 18.5356C21.3479 17.6382 20.6664 16.9922 19.5903 16.9922H15.806C15.6805 16.9922 15.5729 17.0999 15.5729 17.2075V19.8636C15.5908 19.9892 15.6805 20.0789 15.806 20.0789Z" fill="white"/>
<path d="M15.806 26.1983H19.7159C20.9175 26.1983 21.6349 25.5882 21.6349 24.5114C21.6349 23.5782 20.9534 22.8245 19.7159 22.8245H15.806C15.6805 22.8245 15.5729 22.9321 15.5729 23.0398V25.965C15.5908 26.1086 15.6805 26.1983 15.806 26.1983Z" fill="white"/>
<path d="M29.6518 3.06594L18.4604 14.2284H20.2898C23.1414 14.2284 24.8273 16.023 24.8273 17.9791C24.8273 19.5225 23.7871 20.6531 22.6751 21.1556C22.4958 21.2274 22.4958 21.4786 22.693 21.5504C23.9844 22.0529 24.899 23.3988 24.899 24.9781C24.899 27.2034 23.4104 28.9801 20.5229 28.9801H12.5957C12.4701 28.9801 12.3625 28.8724 12.3625 28.7647V20.3121L0.0770673 32.5513C-0.0843473 32.7129 0.0232625 33 0.256417 33H29.7953C29.9029 33 29.9926 32.9103 29.9926 32.8026V3.22745C30.0464 3.03004 29.7953 2.92237 29.6518 3.06594Z" fill="white"/>
</svg>
