<svg width="168" height="168" viewBox="0 0 168 168" fill="none" xmlns="http://www.w3.org/2000/svg">
<path d="M88.3 95.2H109.4C115.4 95.2 119.2 91.9 119.2 86.6C119.2 81.6 115.4 78 109.4 78H88.3C87.6 78 87 78.6 87 79.2V94C87.1 94.7 87.6 95.2 88.3 95.2Z" fill="#34313F"/>
<path d="M88.3 129.3H110.1C116.8 129.3 120.8 125.9 120.8 119.9C120.8 114.7 117 110.5 110.1 110.5H88.3C87.6 110.5 87 111.1 87 111.7V128C87.1 128.8 87.6 129.3 88.3 129.3Z" fill="#34313F"/>
<path d="M165.5 0.399893L103.1 62.5999H113.3C129.2 62.5999 138.6 72.5999 138.6 83.4999C138.6 92.0999 132.8 98.3999 126.6 101.2C125.6 101.6 125.6 103 126.7 103.4C133.9 106.2 139 113.7 139 122.5C139 134.9 130.7 144.8 114.6 144.8H70.4C69.7 144.8 69.1 144.2 69.1 143.6V96.4999L0.600008 164.7C-0.299992 165.6 0.300008 167.2 1.60001 167.2H166.3C166.9 167.2 167.4 166.7 167.4 166.1V1.29989C167.7 0.199887 166.3 -0.400107 165.5 0.399893Z" fill="#34313F"/>
</svg>
